<svg id="visual" viewBox="0 0 960 300" width="960" height="300" xmlns="http://www.w3.org/2000/svg" xmlns:xlink="http://www.w3.org/1999/xlink" version="1.1"><rect x="0" y="0" width="960" height="300" fill="#000"></rect><path d="M0 217L22.8 213.3C45.7 209.7 91.3 202.3 137 202C182.7 201.7 228.3 208.3 274 209.3C319.7 210.3 365.3 205.7 411.2 200.5C457 195.3 503 189.7 548.8 191.2C594.7 192.7 640.3 201.3 686 204.8C731.7 208.3 777.3 206.7 823 207C868.7 207.3 914.3 209.7 937.2 210.8L960 212L960 301L937.2 301C914.3 301 868.7 301 823 301C777.3 301 731.7 301 686 301C640.3 301 594.7 301 548.8 301C503 301 457 301 411.2 301C365.3 301 319.7 301 274 301C228.3 301 182.7 301 137 301C91.3 301 45.7 301 22.8 301L0 301Z" fill="#0066ff"></path><path d="M0 232L22.8 226.8C45.7 221.7 91.3 211.3 137 207.3C182.7 203.3 228.3 205.7 274 211C319.7 216.3 365.3 224.7 411.2 229.3C457 234 503 235 548.8 230.8C594.7 226.7 640.3 217.3 686 213.2C731.7 209 777.3 210 823 209.3C868.7 208.7 914.3 206.3 937.2 205.2L960 204L960 301L937.2 301C914.3 301 868.7 301 823 301C777.3 301 731.7 301 686 301C640.3 301 594.7 301 548.8 301C503 301 457 301 411.2 301C365.3 301 319.7 301 274 301C228.3 301 182.7 301 137 301C91.3 301 45.7 301 22.8 301L0 301Z" fill="#007aff"></path><path d="M0 227L22.8 227.7C45.7 228.3 91.3 229.7 137 230C182.7 230.3 228.3 229.7 274 230.3C319.7 231 365.3 233 411.2 231.8C457 230.7 503 226.3 548.8 226.2C594.7 226 640.3 230 686 234.3C731.7 238.7 777.3 243.3 823 244.2C868.7 245 914.3 242 937.2 240.5L960 239L960 301L937.2 301C914.3 301 868.7 301 823 301C777.3 301 731.7 301 686 301C640.3 301 594.7 301 548.8 301C503 301 457 301 411.2 301C365.3 301 319.7 301 274 301C228.3 301 182.7 301 137 301C91.3 301 45.7 301 22.8 301L0 301Z" fill="#008cff"></path><path d="M0 254L22.8 252C45.7 250 91.3 246 137 245.2C182.7 244.3 228.3 246.7 274 246.8C319.7 247 365.3 245 411.2 244C457 243 503 243 548.8 244.5C594.7 246 640.3 249 686 248.7C731.7 248.3 777.3 244.7 823 242.8C868.7 241 914.3 241 937.2 241L960 241L960 301L937.2 301C914.3 301 868.7 301 823 301C777.3 301 731.7 301 686 301C640.3 301 594.7 301 548.8 301C503 301 457 301 411.2 301C365.3 301 319.7 301 274 301C228.3 301 182.7 301 137 301C91.3 301 45.7 301 22.8 301L0 301Z" fill="#2b9dfc"></path><path d="M0 262L22.8 265.3C45.7 268.7 91.3 275.3 137 277C182.7 278.7 228.3 275.3 274 274.7C319.7 274 365.3 276 411.2 278.2C457 280.3 503 282.7 548.8 282C594.7 281.3 640.3 277.7 686 277.7C731.7 277.7 777.3 281.3 823 283C868.7 284.7 914.3 284.3 937.2 284.2L960 284L960 301L937.2 301C914.3 301 868.7 301 823 301C777.3 301 731.7 301 686 301C640.3 301 594.7 301 548.8 301C503 301 457 301 411.2 301C365.3 301 319.7 301 274 301C228.3 301 182.7 301 137 301C91.3 301 45.7 301 22.8 301L0 301Z" fill="#4facf7"></path></svg>